<svg width="170" height="61" viewBox="0 0 170 61" fill="none" xmlns="http://www.w3.org/2000/svg">
<path d="M63.4595 44.57C63.5436 44.5719 63.6275 44.5636 63.7095 44.5451C63.7661 44.5323 63.8197 44.5088 63.8676 44.476C63.9043 44.4514 63.9331 44.4168 63.9506 44.3762C63.9663 44.3336 63.9741 44.2885 63.9736 44.2431C63.9731 44.191 63.9593 44.14 63.9336 44.0947C63.9079 44.0494 63.871 44.0112 63.8265 43.9841C63.6689 43.8876 63.4991 43.8127 63.3215 43.7612C63.2175 43.7245 63.1136 43.6825 63.0096 43.6352C62.9081 43.5894 62.8137 43.5292 62.7296 43.4563C62.6467 43.3826 62.5788 43.2934 62.5295 43.1941C62.4743 43.0773 62.4476 42.9491 62.4515 42.82C62.4491 42.6822 62.4774 42.5456 62.5345 42.4201C62.5889 42.3037 62.6689 42.2011 62.7686 42.1201C62.8775 42.0336 63.0021 41.9692 63.1356 41.9301C63.2937 41.8837 63.4578 41.8612 63.6226 41.8632C63.9497 41.8562 64.2734 41.9318 64.5635 42.0832L64.3566 42.6482C64.2601 42.5993 64.1598 42.5584 64.0566 42.5261C63.9291 42.4882 63.7965 42.4703 63.6636 42.4731C63.5361 42.4635 63.4084 42.4881 63.2936 42.5442C63.2569 42.5669 63.227 42.5993 63.2071 42.6377C63.1872 42.676 63.178 42.719 63.1805 42.7622C63.179 42.8143 63.1937 42.8656 63.2225 42.9091C63.2539 42.9526 63.2937 42.9893 63.3395 43.0171C63.3947 43.0515 63.4529 43.0808 63.5135 43.1042C63.5802 43.1302 63.6529 43.157 63.7316 43.185C63.8969 43.2464 64.0409 43.3068 64.1636 43.3662C64.2761 43.419 64.3794 43.4895 64.4695 43.5752C64.5499 43.6539 64.6117 43.7496 64.6506 43.8552C64.6934 43.9806 64.7137 44.1126 64.7106 44.2451C64.7173 44.3768 64.6924 44.5082 64.6382 44.6284C64.5839 44.7486 64.5018 44.8542 64.3986 44.9362C64.1206 45.1197 63.7897 45.2057 63.4576 45.1811C63.3301 45.1822 63.2027 45.174 63.0765 45.1562C62.9753 45.1419 62.8751 45.1212 62.7766 45.0942C62.6998 45.0734 62.6247 45.0473 62.5516 45.0161C62.4976 44.9928 62.4449 44.9668 62.3936 44.9382L62.5936 44.3681C62.859 44.5086 63.1564 44.5774 63.4565 44.5681L63.4595 44.57Z" fill="#B9B9B9"/>
<path d="M70.6955 44.5012V45.1162H68.5696V41.9343H69.2856V44.5012H70.6955Z" fill="#B9B9B9"/>
<path d="M77.4905 43.5232C77.4952 43.7684 77.4539 44.0123 77.3686 44.2422C77.2955 44.4368 77.182 44.6137 77.0356 44.7613C76.8939 44.9015 76.7232 45.0089 76.5356 45.0762C76.3343 45.1475 76.1222 45.1831 75.9086 45.1812C75.6991 45.1827 75.4909 45.1471 75.2936 45.0762C75.1048 45.0084 74.9326 44.901 74.7886 44.7613C74.6396 44.6145 74.5235 44.4375 74.4486 44.2422C74.3618 44.0126 74.3198 43.7686 74.3246 43.5232C74.3196 43.2775 74.363 43.0331 74.4526 42.8042C74.5311 42.6085 74.6492 42.4311 74.7996 42.2832C74.9422 42.1437 75.1126 42.0356 75.2996 41.9661C75.4918 41.8956 75.6949 41.8597 75.8996 41.8601C76.1092 41.8589 76.3174 41.8948 76.5146 41.9661C76.7037 42.0343 76.876 42.1425 77.0196 42.2832C77.1682 42.4311 77.284 42.6086 77.3596 42.8042C77.4486 43.0334 77.4931 43.2774 77.4905 43.5232ZM75.0616 43.5232C75.0596 43.6659 75.0788 43.808 75.1186 43.9451C75.1525 44.0626 75.2085 44.1728 75.2836 44.2693C75.3541 44.3587 75.4444 44.4302 75.5476 44.4783C75.6603 44.527 75.7818 44.552 75.9046 44.552C76.0274 44.552 76.1488 44.527 76.2615 44.4783C76.3655 44.4306 76.4567 44.359 76.5277 44.2693C76.6027 44.1727 76.6586 44.0626 76.6926 43.9451C76.7322 43.808 76.7514 43.6659 76.7496 43.5232C76.7514 43.3795 76.7322 43.2363 76.6926 43.0982C76.6588 42.98 76.6028 42.8695 76.5277 42.7722C76.4566 42.6827 76.3654 42.6111 76.2615 42.5633C76.1497 42.5131 76.0282 42.4882 75.9056 42.4903C75.782 42.488 75.6595 42.5139 75.5476 42.5662C75.4447 42.6156 75.3545 42.6877 75.2836 42.7771C75.2083 42.8743 75.1523 42.9851 75.1186 43.1033C75.0805 43.24 75.0626 43.3814 75.0656 43.5232H75.0616Z" fill="#B9B9B9"/>
<path d="M82.9455 42.4851C82.8117 42.4727 82.6769 42.4914 82.5515 42.5396C82.4261 42.5878 82.3135 42.6644 82.2225 42.7632C82.0631 42.9834 81.9843 43.2518 81.9995 43.5232C81.9977 43.6668 82.0163 43.8099 82.0545 43.9483C82.0873 44.0675 82.1434 44.1788 82.2196 44.2762C82.2931 44.3681 82.3872 44.4416 82.4945 44.4903C82.6163 44.5427 82.748 44.5683 82.8806 44.5652C82.9596 44.5652 83.0285 44.5652 83.0805 44.5652C83.1306 44.563 83.1804 44.5569 83.2296 44.5472V43.4322H83.9455V45.0071C83.8109 45.0539 83.6729 45.0902 83.5326 45.1153C83.3016 45.1569 83.0671 45.1759 82.8325 45.1722C82.611 45.1751 82.3908 45.138 82.1826 45.0623C81.9943 44.993 81.8235 44.8831 81.6826 44.7403C81.5403 44.5922 81.4314 44.4151 81.3635 44.2212C81.2852 43.9963 81.247 43.7594 81.2506 43.5213C81.246 43.2798 81.288 43.0397 81.3745 42.8142C81.4507 42.619 81.5665 42.4416 81.7146 42.2933C81.8587 42.1506 82.0315 42.0402 82.2215 41.9693C82.4205 41.8952 82.6312 41.8578 82.8435 41.8592C83.0867 41.8579 83.3288 41.8917 83.5625 41.9593C83.6365 41.9801 83.7088 42.0067 83.7785 42.0391C83.8345 42.0661 83.8785 42.0883 83.8995 42.1033L83.6925 42.6773C83.5848 42.6215 83.472 42.5763 83.3556 42.5423C83.2223 42.5036 83.0842 42.4843 82.9455 42.4851Z" fill="#B9B9B9"/>
<path d="M90.0566 45.1171C90.0216 45.0061 89.9826 44.8921 89.9426 44.7761L89.8206 44.4282H88.5776L88.4566 44.7773C88.4166 44.894 88.3789 45.0071 88.3436 45.1171H87.5995C87.7189 44.7738 87.8326 44.4569 87.9406 44.1662C88.0486 43.8755 88.1539 43.6015 88.2565 43.3442C88.3592 43.0869 88.4592 42.8426 88.5566 42.6113C88.6539 42.3799 88.7576 42.1543 88.8676 41.9343H89.5466C89.6512 42.1549 89.7542 42.3806 89.8555 42.6113C89.9569 42.8419 90.0592 43.0862 90.1625 43.3442C90.2659 43.6009 90.3712 43.8749 90.4786 44.1662C90.5859 44.4575 90.6999 44.7745 90.8206 45.1171H90.0566ZM89.1966 42.6562C89.1806 42.7029 89.1572 42.7655 89.1265 42.8442L89.0215 43.1201C88.9822 43.2247 88.9382 43.3394 88.8896 43.4641C88.8409 43.5887 88.7915 43.7204 88.7415 43.8591H89.6515C89.6029 43.7211 89.5556 43.5878 89.5096 43.4592C89.4636 43.3305 89.4202 43.2155 89.3796 43.1142L89.2715 42.8391C89.2395 42.7611 89.2155 42.7012 89.1985 42.6562H89.1966Z" fill="#B9B9B9"/>
<path d="M96.6686 45.1171C96.4639 44.7525 96.2419 44.3929 96.0026 44.0383C95.768 43.689 95.5135 43.3533 95.2405 43.0332V45.1181H94.5336V41.9362H95.1166C95.2173 42.0376 95.3289 42.1616 95.4516 42.3083C95.5742 42.455 95.6989 42.6119 95.8256 42.7792C95.9523 42.9459 96.0786 43.119 96.2046 43.2983C96.3306 43.4776 96.4485 43.6498 96.5585 43.8151V41.9372H97.2705V45.1191L96.6686 45.1171Z" fill="#B9B9B9"/>
<path d="M103.968 42.4851C103.835 42.4727 103.7 42.4914 103.575 42.5396C103.449 42.5878 103.337 42.6644 103.246 42.7632C103.086 42.9834 103.007 43.2518 103.023 43.5232C103.021 43.6668 103.039 43.8099 103.077 43.9483C103.111 44.0675 103.167 44.1788 103.244 44.2762C103.317 44.3681 103.411 44.4415 103.519 44.4903C103.64 44.5427 103.771 44.5682 103.904 44.5652C103.984 44.5652 104.051 44.5652 104.103 44.5652C104.154 44.5629 104.203 44.5569 104.253 44.5472V43.4322H104.968V45.0071C104.834 45.054 104.696 45.0902 104.556 45.1153C104.325 45.1569 104.09 45.1759 103.856 45.1722C103.634 45.1752 103.414 45.138 103.206 45.0623C103.017 44.9931 102.846 44.8831 102.706 44.7403C102.563 44.592 102.455 44.415 102.387 44.2212C102.309 43.9962 102.271 43.7594 102.275 43.5213C102.27 43.2798 102.312 43.0397 102.399 42.8142C102.475 42.619 102.59 42.4416 102.739 42.2932C102.883 42.1506 103.056 42.0402 103.246 41.9693C103.445 41.8952 103.655 41.8578 103.868 41.8592C104.111 41.8579 104.353 41.8916 104.587 41.9593C104.661 41.98 104.733 42.0066 104.802 42.0391C104.859 42.0661 104.903 42.0883 104.925 42.1033L104.718 42.6773C104.609 42.6215 104.496 42.5763 104.379 42.5423C104.246 42.5035 104.108 42.4842 103.968 42.4851Z" fill="#B9B9B9"/>
<path d="M111.976 43.5232C111.98 43.7684 111.939 44.0123 111.854 44.2422C111.78 44.4368 111.667 44.6137 111.521 44.7613C111.379 44.9015 111.208 45.0089 111.021 45.0762C110.819 45.1476 110.607 45.1831 110.394 45.1812C110.184 45.1826 109.976 45.1471 109.779 45.0762C109.59 45.0082 109.418 44.9009 109.274 44.7613C109.125 44.6145 109.009 44.4375 108.934 44.2422C108.847 44.0126 108.805 43.7686 108.81 43.5232C108.805 43.2775 108.848 43.0331 108.938 42.8042C109.016 42.6085 109.134 42.4311 109.285 42.2832C109.429 42.1432 109.601 42.035 109.79 41.9661C109.982 41.8956 110.185 41.8597 110.39 41.8601C110.599 41.8589 110.807 41.8948 111.005 41.9661C111.194 42.0343 111.366 42.1425 111.51 42.2832C111.658 42.431 111.774 42.6086 111.85 42.8042C111.937 43.0337 111.98 43.2777 111.976 43.5232ZM109.547 43.5232C109.545 43.6659 109.564 43.808 109.604 43.9451C109.637 44.0626 109.694 44.1728 109.769 44.2693C109.839 44.3586 109.929 44.4302 110.033 44.4783C110.145 44.527 110.267 44.552 110.39 44.552C110.512 44.552 110.634 44.527 110.747 44.4783C110.851 44.4306 110.942 44.359 111.013 44.2693C111.088 44.1728 111.144 44.0626 111.178 43.9451C111.217 43.808 111.237 43.6659 111.235 43.5232C111.236 43.3795 111.217 43.2363 111.178 43.0982C111.144 42.98 111.088 42.8694 111.013 42.7722C110.942 42.6827 110.85 42.6111 110.747 42.5633C110.635 42.5131 110.513 42.4881 110.391 42.4903C110.267 42.4881 110.145 42.514 110.033 42.5662C109.93 42.6156 109.84 42.6877 109.769 42.7771C109.693 42.8743 109.637 42.9851 109.604 43.1033C109.564 43.2398 109.545 43.3812 109.547 43.5232Z" fill="#B9B9B9"/>
<path d="M115.879 45.1171V41.9352H118.028V42.5351H116.596V43.1601H117.868V43.7473H116.596V44.5141H118.134V45.1142L115.879 45.1171Z" fill="#B9B9B9"/>
<path d="M122.834 44.57C122.918 44.5719 123.002 44.5636 123.084 44.5451C123.14 44.5325 123.194 44.509 123.243 44.476C123.279 44.4514 123.307 44.4168 123.325 44.3762C123.34 44.3337 123.348 44.2885 123.348 44.2431C123.347 44.191 123.333 44.14 123.308 44.0947C123.282 44.0494 123.245 44.0112 123.201 43.9841C123.043 43.8876 122.873 43.8127 122.696 43.7612C122.592 43.7245 122.488 43.6826 122.384 43.6352C122.282 43.5895 122.188 43.5292 122.104 43.4563C122.021 43.3826 121.953 43.2934 121.904 43.1941C121.849 43.0773 121.822 42.9491 121.826 42.82C121.823 42.6822 121.851 42.5456 121.909 42.4201C121.963 42.3037 122.043 42.2011 122.143 42.1201C122.252 42.0335 122.377 41.969 122.511 41.9301C122.668 41.8837 122.832 41.8613 122.996 41.8632C123.324 41.8562 123.647 41.9318 123.938 42.0832L123.731 42.6482C123.634 42.5993 123.534 42.5585 123.431 42.5261C123.303 42.4882 123.17 42.4703 123.038 42.4731C122.91 42.4637 122.782 42.4882 122.668 42.5442C122.631 42.5672 122.602 42.5996 122.582 42.6379C122.562 42.6762 122.553 42.7191 122.556 42.7622C122.554 42.8142 122.568 42.8655 122.597 42.9091C122.628 42.9526 122.668 42.9893 122.714 43.0171C122.769 43.0515 122.827 43.0808 122.888 43.1042C122.954 43.1302 123.027 43.157 123.107 43.185C123.272 43.2464 123.416 43.3068 123.539 43.3662C123.651 43.4191 123.754 43.4896 123.844 43.5752C123.924 43.6539 123.986 43.7496 124.025 43.8552C124.067 43.9806 124.088 44.1126 124.085 44.2451C124.091 44.3768 124.066 44.5082 124.012 44.6284C123.958 44.7486 123.876 44.8542 123.772 44.9362C123.495 45.1196 123.164 45.2057 122.832 45.1811C122.704 45.1822 122.577 45.174 122.451 45.1562C122.349 45.1419 122.249 45.1211 122.151 45.0942C122.017 45.058 121.888 45.0056 121.768 44.9382L121.968 44.3681C122.079 44.4271 122.197 44.4739 122.319 44.508C122.486 44.5532 122.66 44.5741 122.834 44.57Z" fill="#B9B9B9"/>
<path d="M130.965 41.9352H131.682V45.1171H130.965V43.7673H129.765V45.1171H129.049V41.9352H129.765V43.1523H130.965V41.9352Z" fill="#B9B9B9"/>
<path d="M135.718 45.1171V41.9352H137.867V42.5351H136.434V43.1601H137.705V43.7473H136.434V44.5141H137.973V45.1142L135.718 45.1171Z" fill="#B9B9B9"/>
<path d="M142.741 41.898C143.124 41.874 143.507 41.9628 143.841 42.1532C143.968 42.2406 144.069 42.3595 144.136 42.4984C144.203 42.6373 144.232 42.7914 144.222 42.9451C144.23 43.1383 144.176 43.329 144.068 43.4891C143.953 43.6373 143.8 43.751 143.625 43.8172C143.689 43.8972 143.757 43.9882 143.825 44.0902C143.893 44.1922 143.965 44.3002 144.034 44.4112C144.103 44.5222 144.17 44.6391 144.234 44.7601C144.298 44.8811 144.358 45 144.413 45.116H143.613L143.435 44.7992C143.375 44.6922 143.314 44.5881 143.251 44.4871C143.188 44.3861 143.126 44.287 143.064 44.2C143.002 44.113 142.941 44.0282 142.879 43.9542H142.525V45.116H141.809V41.9801C141.968 41.9492 142.13 41.9278 142.293 41.9161C142.461 41.9041 142.61 41.898 142.741 41.898ZM142.783 42.5091C142.731 42.5091 142.683 42.5091 142.643 42.5091L142.526 42.5181V43.3812H142.726C142.923 43.3954 143.122 43.3609 143.304 43.2811C143.362 43.2458 143.409 43.1949 143.44 43.1341C143.471 43.0733 143.484 43.0051 143.479 42.9371C143.484 42.8705 143.47 42.8037 143.439 42.7447C143.407 42.6857 143.36 42.6369 143.302 42.6041C143.139 42.5302 142.961 42.4982 142.783 42.5091Z" fill="#B9B9B9"/>
<path d="M148.178 45.1171V41.9352H150.326V42.5351H148.894V43.1601H150.166V43.7473H148.894V44.5141H150.431V45.1142L148.178 45.1171Z" fill="#B9B9B9"/>
<path d="M55.6587 36.2432V26.3512H62.2837V28.2212H57.8837V30.2912H61.7957V32.1613H57.8837V36.2442L55.6587 36.2432Z" fill="#B9B9B9"/>
<path d="M66.7527 26.2353C67.9428 26.1618 69.1286 26.4371 70.1647 27.0272C70.5595 27.2991 70.8764 27.6694 71.0843 28.1013C71.2921 28.5333 71.3836 29.0121 71.3497 29.4903C71.3773 30.0911 71.2095 30.6847 70.8717 31.1823C70.5156 31.6435 70.0386 31.9969 69.4937 32.2033C69.6937 32.4506 69.903 32.7336 70.1217 33.0523C70.3403 33.3709 70.557 33.7043 70.7717 34.0523C70.9857 34.3996 71.1927 34.7612 71.3927 35.1372C71.5927 35.5132 71.7784 35.8823 71.9497 36.2443H69.4597L68.9077 35.2593C68.721 34.926 68.53 34.6022 68.3347 34.2882C68.1394 33.9742 67.946 33.6769 67.7547 33.3963C67.5633 33.1156 67.3723 32.8609 67.1817 32.6322H66.0817V36.2443H63.8547V26.4922C64.3523 26.3955 64.8551 26.3287 65.3607 26.2923C65.8794 26.2543 66.3433 26.2353 66.7527 26.2353ZM66.8807 28.1353C66.7187 28.1353 66.5733 28.1399 66.4447 28.1492L66.0807 28.1782V30.8603H66.7087C67.3253 30.9035 67.9432 30.7958 68.5087 30.5463C68.69 30.4362 68.8369 30.2774 68.9327 30.0882C69.0285 29.8989 69.0694 29.6866 69.0507 29.4752C69.0671 29.2683 69.024 29.0609 68.9266 28.8776C68.8292 28.6942 68.6814 28.5424 68.5007 28.4402C67.994 28.2068 67.4376 28.1028 66.8807 28.1353Z" fill="#B9B9B9"/>
<path d="M73.3776 36.2432V26.3512H80.0597V28.2212H75.6047V30.1632H79.5597V31.9912H75.6047V34.3753H80.3877V36.2462L73.3776 36.2432Z" fill="#B9B9B9"/>
<path d="M82.0297 36.2432V26.3512H88.7117V28.2212H84.2567V30.1632H88.2117V31.9912H84.2567V34.3753H89.0397V36.2462L82.0297 36.2432Z" fill="#B9B9B9"/>
<path d="M99.3487 31.2892C99.3651 32.0557 99.2291 32.8178 98.9487 33.5313C98.7015 34.1422 98.3124 34.6855 97.8136 35.1162C97.2895 35.5532 96.6788 35.8742 96.0216 36.0583C95.2509 36.2767 94.4527 36.3824 93.6517 36.3722C93.2517 36.3722 92.785 36.3556 92.2516 36.3223C91.7238 36.2898 91.1989 36.2206 90.6807 36.1153V26.4783C91.2116 26.3811 91.7479 26.3166 92.2867 26.2853C92.8433 26.252 93.3217 26.2353 93.7217 26.2353C94.4997 26.2266 95.2753 26.3228 96.0276 26.5213C96.6776 26.6914 97.2838 26.9982 97.8057 27.4213C98.3097 27.8432 98.7019 28.3827 98.9477 28.9922C99.2314 29.724 99.3677 30.5046 99.3487 31.2892ZM92.9097 34.4302C93.0144 34.4395 93.1357 34.4465 93.2737 34.4512C93.4117 34.4562 93.5736 34.4583 93.7666 34.4583C94.2152 34.4952 94.6666 34.4394 95.0927 34.2946C95.5188 34.1497 95.9105 33.9188 96.2437 33.6162C96.8098 32.9778 97.0999 32.1411 97.0507 31.2892C97.1136 30.8552 97.0734 30.4125 96.9333 29.997C96.7932 29.5814 96.5571 29.2047 96.2443 28.8974C95.9315 28.59 95.5508 28.3607 95.1329 28.2279C94.7149 28.0952 94.2715 28.0627 93.8387 28.1332C93.686 28.1332 93.5291 28.1356 93.3677 28.1403C93.2149 28.1443 93.0623 28.1563 92.9107 28.1763L92.9097 34.4302Z" fill="#B9B9B9"/>
<path d="M110.628 31.2882C110.643 32.0503 110.514 32.8084 110.25 33.5232C110.022 34.1276 109.669 34.6772 109.215 35.1362C108.772 35.5728 108.238 35.9067 107.652 36.1142C107.026 36.3367 106.366 36.4477 105.703 36.4422C105.051 36.4465 104.403 36.3354 103.79 36.1142C103.203 35.9032 102.668 35.5698 102.22 35.1362C101.757 34.6798 101.396 34.1299 101.163 33.5232C100.893 32.8095 100.763 32.0509 100.778 31.2882C100.763 30.5245 100.898 29.7652 101.178 29.0542C101.421 28.4457 101.789 27.8941 102.256 27.4342C102.704 26.9989 103.239 26.6633 103.826 26.4492C104.427 26.2294 105.063 26.1183 105.704 26.1212C106.356 26.1171 107.003 26.2282 107.617 26.4492C108.205 26.6611 108.74 26.997 109.187 27.4342C109.649 27.8941 110.009 28.446 110.244 29.0542C110.513 29.7676 110.643 30.5259 110.628 31.2882ZM103.075 31.2882C103.069 31.7326 103.129 32.1754 103.253 32.6022C103.358 32.9674 103.533 33.3093 103.767 33.6092C103.986 33.8868 104.267 34.1093 104.588 34.2591C104.938 34.4099 105.316 34.4877 105.698 34.4877C106.079 34.4877 106.457 34.4099 106.808 34.2591C107.131 34.1106 107.415 33.888 107.636 33.6092C107.869 33.3092 108.044 32.9674 108.15 32.6022C108.274 32.1754 108.334 31.7326 108.329 31.2882C108.334 30.8415 108.274 30.3964 108.15 29.9671C108.045 29.5995 107.87 29.2554 107.636 28.9532C107.415 28.6745 107.131 28.4518 106.808 28.3032C106.46 28.1466 106.082 28.0684 105.701 28.0742C105.316 28.067 104.935 28.1477 104.587 28.3102C104.267 28.4643 103.986 28.6889 103.766 28.9671C103.531 29.2692 103.357 29.6134 103.252 29.9812C103.129 30.4058 103.069 30.8462 103.075 31.2882Z" fill="#B9B9B9"/>
<path d="M115.11 26.3512C115.282 26.6652 115.48 27.0532 115.704 27.5152C115.928 27.9772 116.161 28.4772 116.404 29.0152C116.647 29.5532 116.888 30.1029 117.127 30.6642L117.8 32.2492L118.473 30.6642C118.711 30.1029 118.952 29.5532 119.196 29.0152C119.439 28.4772 119.672 27.9772 119.896 27.5152C120.12 27.0532 120.318 26.6652 120.49 26.3512H122.518C122.612 27.0079 122.7 27.7433 122.782 28.5573C122.863 29.3713 122.934 30.2182 122.996 31.0982C123.058 31.9788 123.115 32.8616 123.167 33.7462C123.219 34.6309 123.264 35.4642 123.302 36.2462H121.132C121.103 35.2849 121.065 34.2379 121.018 33.1052C120.97 31.9726 120.899 30.8302 120.804 29.6782C120.632 30.0782 120.441 30.5209 120.231 31.0062C120.021 31.4916 119.813 31.9768 119.608 32.4622C119.402 32.9475 119.204 33.4116 119.014 33.8543C118.823 34.2969 118.661 34.6752 118.527 34.9892H116.971C116.837 34.6752 116.675 34.2969 116.484 33.8543C116.292 33.4116 116.094 32.9475 115.89 32.4622C115.684 31.9768 115.477 31.4916 115.267 31.0062C115.057 30.5209 114.866 30.0782 114.694 29.6782C114.598 30.8296 114.527 31.9719 114.48 33.1052C114.432 34.2386 114.394 35.2856 114.366 36.2462H112.196C112.234 35.4656 112.279 34.6322 112.332 33.7462C112.384 32.8602 112.441 31.9775 112.503 31.0982C112.565 30.2182 112.636 29.3713 112.717 28.5573C112.797 27.7433 112.885 27.0079 112.981 26.3512H115.11Z" fill="#B9B9B9"/>
<path d="M128.589 36.3721C128.046 36.3721 127.506 36.3555 126.968 36.3222C126.404 36.2852 125.843 36.2067 125.291 36.0872V26.4921C125.787 26.4013 126.288 26.3369 126.791 26.2991C127.333 26.2565 127.838 26.2352 128.304 26.2352C128.885 26.2315 129.465 26.277 130.039 26.3712C130.517 26.4444 130.978 26.6015 131.402 26.8351C131.769 27.0411 132.076 27.3389 132.294 27.6992C132.519 28.1019 132.63 28.5588 132.615 29.0202C132.615 29.4068 132.508 29.786 132.307 30.1159C132.105 30.4459 131.817 30.7138 131.473 30.8902C132.002 31.0515 132.458 31.3956 132.758 31.8611C132.99 32.2853 133.108 32.7626 133.101 33.2462C133.128 33.7011 133.038 34.1554 132.839 34.5655C132.64 34.9756 132.34 35.3277 131.966 35.5882C130.943 36.1789 129.767 36.4518 128.589 36.3721ZM127.461 30.2332H128.546C129.05 30.2697 129.555 30.1789 130.016 29.9692C130.161 29.8823 130.279 29.7569 130.357 29.6069C130.436 29.4568 130.471 29.288 130.459 29.1192C130.473 28.9496 130.437 28.7794 130.356 28.6298C130.275 28.4802 130.152 28.3577 130.002 28.2772C129.58 28.0921 129.12 28.0088 128.66 28.0341C128.469 28.0341 128.264 28.0365 128.046 28.0412C127.827 28.0459 127.632 28.0579 127.461 28.0772V30.2332ZM127.461 31.9332V34.4892C127.623 34.5085 127.799 34.5228 127.989 34.5322C128.179 34.5415 128.388 34.5462 128.617 34.5462C129.169 34.5677 129.719 34.4705 130.23 34.2612C130.429 34.1701 130.595 34.0196 130.705 33.8303C130.815 33.641 130.863 33.4222 130.844 33.2042C130.859 33.0092 130.819 32.8139 130.728 32.6408C130.637 32.4677 130.499 32.324 130.33 32.2261C129.872 32.006 129.366 31.9052 128.859 31.9332H127.461Z" fill="#B9B9B9"/>
<path d="M134.885 26.3512H137.112V36.2462H134.885V26.3512Z" fill="#B9B9B9"/>
<path d="M142.295 26.2352C143.485 26.1616 144.671 26.4368 145.708 27.0272C146.103 27.299 146.42 27.6693 146.627 28.1013C146.835 28.5333 146.927 29.012 146.893 29.4902C146.92 30.091 146.753 30.6847 146.415 31.1822C146.059 31.6434 145.582 31.9968 145.037 32.2032C145.237 32.4505 145.446 32.7335 145.665 33.0522C145.883 33.3709 146.1 33.7042 146.315 34.0522C146.529 34.3995 146.736 34.7611 146.936 35.1371C147.136 35.5131 147.321 35.8822 147.493 36.2442H145.003L144.451 35.2592C144.265 34.9259 144.074 34.6021 143.878 34.2881C143.682 33.9741 143.488 33.6768 143.297 33.3962C143.106 33.1155 142.915 32.8608 142.724 32.6321H141.624V36.2442H139.396V26.4921C139.894 26.3954 140.397 26.3286 140.903 26.2922C141.421 26.2542 141.885 26.2352 142.295 26.2352ZM142.424 28.1352C142.262 28.1352 142.117 28.1398 141.988 28.1491L141.624 28.1782V30.8602H142.252C142.868 30.9037 143.486 30.796 144.052 30.5462C144.233 30.4362 144.38 30.2776 144.476 30.0883C144.572 29.899 144.613 29.6866 144.595 29.4752C144.611 29.2682 144.568 29.0609 144.471 28.8775C144.373 28.6941 144.225 28.5423 144.045 28.4401C143.538 28.2066 142.981 28.1026 142.424 28.1352Z" fill="#B9B9B9"/>
<path d="M157.587 31.2892C157.603 32.0557 157.467 32.8178 157.187 33.5313C156.94 34.1422 156.551 34.6855 156.052 35.1162C155.528 35.5533 154.917 35.8743 154.26 36.0583C153.489 36.2767 152.691 36.3825 151.89 36.3722C151.49 36.3722 151.023 36.3556 150.49 36.3223C149.962 36.2897 149.438 36.2205 148.92 36.1153V26.4783C149.451 26.3811 149.987 26.3166 150.526 26.2853C151.082 26.252 151.561 26.2353 151.961 26.2353C152.739 26.2266 153.514 26.3228 154.267 26.5213C154.917 26.6914 155.523 26.9982 156.045 27.4213C156.549 27.8432 156.941 28.3827 157.187 28.9922C157.47 29.724 157.606 30.5047 157.587 31.2892ZM151.148 34.4302C151.252 34.4395 151.373 34.4465 151.512 34.4512C151.649 34.4562 151.812 34.4583 152.004 34.4583C152.452 34.4952 152.904 34.4394 153.33 34.2946C153.756 34.1497 154.148 33.9188 154.481 33.6162C155.047 32.9779 155.337 32.1411 155.288 31.2892C155.351 30.8552 155.31 30.4125 155.17 29.997C155.03 29.5814 154.794 29.2047 154.481 28.8974C154.168 28.59 153.788 28.3607 153.37 28.2279C152.952 28.0952 152.509 28.0627 152.076 28.1332C151.923 28.1332 151.766 28.1356 151.605 28.1403C151.452 28.1442 151.299 28.1562 151.148 28.1763V34.4302Z" fill="#B9B9B9"/>
<path d="M58.0947 20.842L53.7747 18.266C53.1183 16.7558 52.1886 15.3797 51.0327 14.207L50.9248 14.086C48.6508 11.544 46.1247 10.353 43.4147 10.541C39.9947 10.78 36.5657 13.241 33.4677 17.67C32.8157 17.404 32.1608 17.148 31.5078 16.896C26.2788 14.865 21.3396 12.947 18.4916 5.17999L17.3258 2L16.9187 5.36298C16.5347 8.2989 16.4377 11.2652 16.6287 14.22C15.4895 12.8716 14.5653 11.3554 13.8887 9.72498L12.6958 6.94098L12.3327 9.948C10.2177 27.441 18.5327 31.214 25.8687 34.543L25.8817 34.549C25.14 37.9351 24.6322 41.3682 24.3616 44.824C24.1766 46.59 23.9617 48.591 23.7017 50.446C23.3487 50.503 23.0017 50.555 22.6647 50.608C19.7747 51.051 17.6877 51.37 17.0977 52.777C16.6107 53.937 17.5047 55.177 17.7977 55.582C18.7067 56.843 20.0417 58.433 21.5217 58.433C21.7006 58.433 21.8789 58.4094 22.0517 58.363C23.6917 57.926 24.5217 55.642 25.1357 51.857C26.4885 51.6291 27.8247 51.312 29.1357 50.908C40.7857 47.208 43.0097 39.05 44.9727 31.85C46.3487 26.803 47.5566 22.376 51.8406 20.301C53.0726 19.831 58.0947 20.842 58.0947 20.842ZM21.6357 56.79C21.2517 56.89 20.3837 56.381 19.1197 54.629C18.4977 53.767 18.5777 53.458 18.6007 53.405C18.8377 52.84 21.1007 52.4939 22.9127 52.2159L23.4367 52.1349C23.0007 54.6369 22.4297 56.578 21.6357 56.79ZM13.6958 12.929C14.5648 14.3959 15.6591 15.7171 16.9387 16.844C18.3527 25.552 23.2077 29.306 27.6317 32.719C28.5917 33.46 29.5227 34.179 30.3887 34.925C29.1527 34.244 27.8427 33.649 26.5437 33.059C19.8107 30.005 12.8618 26.853 13.6958 12.929ZM28.6427 49.358C27.5745 49.6891 26.4876 49.9562 25.3876 50.158C25.5936 48.624 25.7818 46.898 25.9818 44.995C26.2438 41.7172 26.7113 38.4592 27.3817 35.24C31.9427 37.37 35.6127 39.653 35.5307 45.879C33.4583 47.4364 31.1261 48.6143 28.6427 49.358ZM37.1347 44.4789C36.7467 37.7009 32.7947 34.6489 28.6247 31.4319C23.0687 27.1459 17.3357 22.723 18.2457 8.651C21.4527 14.738 26.2558 16.603 30.9198 18.415C36.1278 20.438 41.0488 22.35 43.7578 30.124C43.6384 30.5546 43.5197 30.9879 43.4017 31.424C42.1377 36.0579 40.8457 40.788 37.1357 44.477L37.1347 44.4789ZM44.5078 27.607C42.6811 23.3834 39.2634 20.0499 34.9957 18.329C37.7167 14.543 40.7238 12.364 43.5288 12.167C45.7088 12.011 47.7897 13.025 49.7117 15.174L49.8208 15.295C50.7274 16.2184 51.4881 17.2745 52.0767 18.4269C47.6907 20.0879 45.8238 23.569 44.5078 27.605V27.607Z" fill="#B9B9B9"/>
</svg>
